<mxfile host="app.diagrams.net" agent="Mozilla/5.0 (Windows NT 10.0; Win64; x64) AppleWebKit/537.36 (KHTML, like Gecko) Chrome/137.0.0.0 Safari/537.36" version="27.1.4">
  <diagram id="C5RBs43oDa-KdzZeNtuy" name="Page-1">
    <mxGraphModel dx="4665" dy="3089" grid="1" gridSize="10" guides="1" tooltips="1" connect="1" arrows="1" fold="1" page="1" pageScale="1" pageWidth="827" pageHeight="1169" math="0" shadow="0">
      <root>
        <mxCell id="WIyWlLk6GJQsqaUBKTNV-0" />
        <mxCell id="WIyWlLk6GJQsqaUBKTNV-1" parent="WIyWlLk6GJQsqaUBKTNV-0" />
        <mxCell id="9sWT844mPqqzPBZcq-Wg-0" value="" style="rounded=0;whiteSpace=wrap;html=1;" parent="WIyWlLk6GJQsqaUBKTNV-1" vertex="1">
          <mxGeometry x="-2840" y="-1782" width="300" height="200" as="geometry" />
        </mxCell>
        <mxCell id="9sWT844mPqqzPBZcq-Wg-1" value="Login" style="text;strokeColor=none;align=center;fillColor=none;html=1;verticalAlign=middle;whiteSpace=wrap;rounded=0;" parent="WIyWlLk6GJQsqaUBKTNV-1" vertex="1">
          <mxGeometry x="-2720" y="-1832" width="60" height="30" as="geometry" />
        </mxCell>
        <mxCell id="9sWT844mPqqzPBZcq-Wg-2" value="Main Menu" style="text;strokeColor=none;align=center;fillColor=none;html=1;verticalAlign=middle;whiteSpace=wrap;rounded=0;" parent="WIyWlLk6GJQsqaUBKTNV-1" vertex="1">
          <mxGeometry x="-2197" y="-1840" width="80" height="30" as="geometry" />
        </mxCell>
        <mxCell id="9sWT844mPqqzPBZcq-Wg-3" value="Add/Modify Part" style="text;strokeColor=none;align=center;fillColor=none;html=1;verticalAlign=middle;whiteSpace=wrap;rounded=0;" parent="WIyWlLk6GJQsqaUBKTNV-1" vertex="1">
          <mxGeometry x="-2485" y="-1485" width="100" height="30" as="geometry" />
        </mxCell>
        <mxCell id="9sWT844mPqqzPBZcq-Wg-4" value="Add/Modify Product" style="text;html=1;align=center;verticalAlign=middle;resizable=0;points=[];autosize=1;strokeColor=none;fillColor=none;" parent="WIyWlLk6GJQsqaUBKTNV-1" vertex="1">
          <mxGeometry x="-1950" y="-1500" width="130" height="30" as="geometry" />
        </mxCell>
        <mxCell id="9sWT844mPqqzPBZcq-Wg-5" value="Report Menu" style="text;html=1;align=center;verticalAlign=middle;resizable=0;points=[];autosize=1;strokeColor=none;fillColor=none;" parent="WIyWlLk6GJQsqaUBKTNV-1" vertex="1">
          <mxGeometry x="-1665" y="-1838" width="90" height="30" as="geometry" />
        </mxCell>
        <mxCell id="9sWT844mPqqzPBZcq-Wg-6" value="Report" style="text;html=1;align=center;verticalAlign=middle;resizable=0;points=[];autosize=1;strokeColor=none;fillColor=none;" parent="WIyWlLk6GJQsqaUBKTNV-1" vertex="1">
          <mxGeometry x="-1115" y="-1838" width="60" height="30" as="geometry" />
        </mxCell>
        <mxCell id="9sWT844mPqqzPBZcq-Wg-9" value="Username" style="text;html=1;align=center;verticalAlign=middle;whiteSpace=wrap;rounded=0;" parent="WIyWlLk6GJQsqaUBKTNV-1" vertex="1">
          <mxGeometry x="-2780" y="-1712" width="60" height="30" as="geometry" />
        </mxCell>
        <mxCell id="9sWT844mPqqzPBZcq-Wg-10" value="Password" style="text;html=1;align=center;verticalAlign=middle;resizable=0;points=[];autosize=1;strokeColor=none;fillColor=none;" parent="WIyWlLk6GJQsqaUBKTNV-1" vertex="1">
          <mxGeometry x="-2790" y="-1672" width="80" height="30" as="geometry" />
        </mxCell>
        <mxCell id="9sWT844mPqqzPBZcq-Wg-11" value="" style="rounded=1;whiteSpace=wrap;html=1;" parent="WIyWlLk6GJQsqaUBKTNV-1" vertex="1">
          <mxGeometry x="-2710" y="-1707" width="90" height="20" as="geometry" />
        </mxCell>
        <mxCell id="9sWT844mPqqzPBZcq-Wg-12" value="" style="rounded=1;whiteSpace=wrap;html=1;" parent="WIyWlLk6GJQsqaUBKTNV-1" vertex="1">
          <mxGeometry x="-2710" y="-1667" width="90" height="20" as="geometry" />
        </mxCell>
        <mxCell id="9sWT844mPqqzPBZcq-Wg-14" value="Login" style="rounded=1;whiteSpace=wrap;html=1;" parent="WIyWlLk6GJQsqaUBKTNV-1" vertex="1">
          <mxGeometry x="-2730" y="-1632" width="50" height="20" as="geometry" />
        </mxCell>
        <mxCell id="9sWT844mPqqzPBZcq-Wg-15" value="" style="rounded=0;whiteSpace=wrap;html=1;" parent="WIyWlLk6GJQsqaUBKTNV-1" vertex="1">
          <mxGeometry x="-2410" y="-1800" width="500" height="250" as="geometry" />
        </mxCell>
        <mxCell id="9sWT844mPqqzPBZcq-Wg-16" value="Parts" style="swimlane;fontStyle=0;childLayout=stackLayout;horizontal=1;startSize=30;horizontalStack=0;resizeParent=1;resizeParentMax=0;resizeLast=0;collapsible=1;marginBottom=0;whiteSpace=wrap;html=1;" parent="WIyWlLk6GJQsqaUBKTNV-1" vertex="1">
          <mxGeometry x="-2390" y="-1735" width="140" height="120" as="geometry" />
        </mxCell>
        <mxCell id="9sWT844mPqqzPBZcq-Wg-17" value="Item 1" style="text;strokeColor=none;fillColor=none;align=left;verticalAlign=middle;spacingLeft=4;spacingRight=4;overflow=hidden;points=[[0,0.5],[1,0.5]];portConstraint=eastwest;rotatable=0;whiteSpace=wrap;html=1;" parent="9sWT844mPqqzPBZcq-Wg-16" vertex="1">
          <mxGeometry y="30" width="140" height="30" as="geometry" />
        </mxCell>
        <mxCell id="9sWT844mPqqzPBZcq-Wg-18" value="Item 2" style="text;strokeColor=none;fillColor=none;align=left;verticalAlign=middle;spacingLeft=4;spacingRight=4;overflow=hidden;points=[[0,0.5],[1,0.5]];portConstraint=eastwest;rotatable=0;whiteSpace=wrap;html=1;" parent="9sWT844mPqqzPBZcq-Wg-16" vertex="1">
          <mxGeometry y="60" width="140" height="30" as="geometry" />
        </mxCell>
        <mxCell id="9sWT844mPqqzPBZcq-Wg-19" value="Item 3" style="text;strokeColor=none;fillColor=none;align=left;verticalAlign=middle;spacingLeft=4;spacingRight=4;overflow=hidden;points=[[0,0.5],[1,0.5]];portConstraint=eastwest;rotatable=0;whiteSpace=wrap;html=1;" parent="9sWT844mPqqzPBZcq-Wg-16" vertex="1">
          <mxGeometry y="90" width="140" height="30" as="geometry" />
        </mxCell>
        <mxCell id="9sWT844mPqqzPBZcq-Wg-20" value="Products" style="swimlane;fontStyle=0;childLayout=stackLayout;horizontal=1;startSize=30;horizontalStack=0;resizeParent=1;resizeParentMax=0;resizeLast=0;collapsible=1;marginBottom=0;whiteSpace=wrap;html=1;" parent="WIyWlLk6GJQsqaUBKTNV-1" vertex="1">
          <mxGeometry x="-2070" y="-1735" width="140" height="120" as="geometry" />
        </mxCell>
        <mxCell id="9sWT844mPqqzPBZcq-Wg-21" value="Item 1" style="text;strokeColor=none;fillColor=none;align=left;verticalAlign=middle;spacingLeft=4;spacingRight=4;overflow=hidden;points=[[0,0.5],[1,0.5]];portConstraint=eastwest;rotatable=0;whiteSpace=wrap;html=1;" parent="9sWT844mPqqzPBZcq-Wg-20" vertex="1">
          <mxGeometry y="30" width="140" height="30" as="geometry" />
        </mxCell>
        <mxCell id="9sWT844mPqqzPBZcq-Wg-22" value="Item 2" style="text;strokeColor=none;fillColor=none;align=left;verticalAlign=middle;spacingLeft=4;spacingRight=4;overflow=hidden;points=[[0,0.5],[1,0.5]];portConstraint=eastwest;rotatable=0;whiteSpace=wrap;html=1;" parent="9sWT844mPqqzPBZcq-Wg-20" vertex="1">
          <mxGeometry y="60" width="140" height="30" as="geometry" />
        </mxCell>
        <mxCell id="9sWT844mPqqzPBZcq-Wg-23" value="Item 3" style="text;strokeColor=none;fillColor=none;align=left;verticalAlign=middle;spacingLeft=4;spacingRight=4;overflow=hidden;points=[[0,0.5],[1,0.5]];portConstraint=eastwest;rotatable=0;whiteSpace=wrap;html=1;" parent="9sWT844mPqqzPBZcq-Wg-20" vertex="1">
          <mxGeometry y="90" width="140" height="30" as="geometry" />
        </mxCell>
        <mxCell id="9sWT844mPqqzPBZcq-Wg-24" value="Add" style="rounded=1;whiteSpace=wrap;html=1;" parent="WIyWlLk6GJQsqaUBKTNV-1" vertex="1">
          <mxGeometry x="-2400" y="-1610" width="50" height="20" as="geometry" />
        </mxCell>
        <mxCell id="9sWT844mPqqzPBZcq-Wg-25" value="Modify" style="rounded=1;whiteSpace=wrap;html=1;" parent="WIyWlLk6GJQsqaUBKTNV-1" vertex="1">
          <mxGeometry x="-2340" y="-1610" width="50" height="20" as="geometry" />
        </mxCell>
        <mxCell id="9sWT844mPqqzPBZcq-Wg-26" value="Delete" style="rounded=1;whiteSpace=wrap;html=1;" parent="WIyWlLk6GJQsqaUBKTNV-1" vertex="1">
          <mxGeometry x="-2280" y="-1610" width="50" height="20" as="geometry" />
        </mxCell>
        <mxCell id="HrNhO31FN3igFEdPXb_E-10" style="edgeStyle=orthogonalEdgeStyle;rounded=0;orthogonalLoop=1;jettySize=auto;html=1;" edge="1" parent="WIyWlLk6GJQsqaUBKTNV-1" source="9sWT844mPqqzPBZcq-Wg-27">
          <mxGeometry relative="1" as="geometry">
            <mxPoint x="-2060" y="-1460" as="targetPoint" />
          </mxGeometry>
        </mxCell>
        <mxCell id="9sWT844mPqqzPBZcq-Wg-27" value="Add" style="rounded=1;whiteSpace=wrap;html=1;" parent="WIyWlLk6GJQsqaUBKTNV-1" vertex="1">
          <mxGeometry x="-2085" y="-1610" width="50" height="20" as="geometry" />
        </mxCell>
        <mxCell id="9sWT844mPqqzPBZcq-Wg-28" value="Modify" style="rounded=1;whiteSpace=wrap;html=1;" parent="WIyWlLk6GJQsqaUBKTNV-1" vertex="1">
          <mxGeometry x="-2025" y="-1610" width="50" height="20" as="geometry" />
        </mxCell>
        <mxCell id="9sWT844mPqqzPBZcq-Wg-29" value="Delete" style="rounded=1;whiteSpace=wrap;html=1;" parent="WIyWlLk6GJQsqaUBKTNV-1" vertex="1">
          <mxGeometry x="-1965" y="-1610" width="50" height="20" as="geometry" />
        </mxCell>
        <mxCell id="9sWT844mPqqzPBZcq-Wg-30" value="Search" style="rounded=1;whiteSpace=wrap;html=1;" parent="WIyWlLk6GJQsqaUBKTNV-1" vertex="1">
          <mxGeometry x="-2300" y="-1760" width="50" height="20" as="geometry" />
        </mxCell>
        <mxCell id="9sWT844mPqqzPBZcq-Wg-31" value="Search" style="rounded=1;whiteSpace=wrap;html=1;" parent="WIyWlLk6GJQsqaUBKTNV-1" vertex="1">
          <mxGeometry x="-1980" y="-1760" width="50" height="20" as="geometry" />
        </mxCell>
        <mxCell id="9sWT844mPqqzPBZcq-Wg-32" value="Exit" style="rounded=1;whiteSpace=wrap;html=1;" parent="WIyWlLk6GJQsqaUBKTNV-1" vertex="1">
          <mxGeometry x="-2185" y="-1590" width="50" height="20" as="geometry" />
        </mxCell>
        <mxCell id="9sWT844mPqqzPBZcq-Wg-33" value="Reports" style="rounded=1;whiteSpace=wrap;html=1;" parent="WIyWlLk6GJQsqaUBKTNV-1" vertex="1">
          <mxGeometry x="-2182" y="-1760" width="50" height="20" as="geometry" />
        </mxCell>
        <mxCell id="9sWT844mPqqzPBZcq-Wg-34" value="Inventory Management System" style="text;html=1;align=center;verticalAlign=middle;resizable=0;points=[];autosize=1;strokeColor=none;fillColor=none;" parent="WIyWlLk6GJQsqaUBKTNV-1" vertex="1">
          <mxGeometry x="-2410" y="-1790" width="190" height="30" as="geometry" />
        </mxCell>
        <mxCell id="9sWT844mPqqzPBZcq-Wg-35" value="" style="rounded=0;whiteSpace=wrap;html=1;" parent="WIyWlLk6GJQsqaUBKTNV-1" vertex="1">
          <mxGeometry x="-2610" y="-1445" width="350" height="250" as="geometry" />
        </mxCell>
        <mxCell id="9sWT844mPqqzPBZcq-Wg-36" value="Add Part" style="text;html=1;align=center;verticalAlign=middle;resizable=0;points=[];autosize=1;strokeColor=none;fillColor=none;" parent="WIyWlLk6GJQsqaUBKTNV-1" vertex="1">
          <mxGeometry x="-2595" y="-1435" width="70" height="30" as="geometry" />
        </mxCell>
        <mxCell id="9sWT844mPqqzPBZcq-Wg-40" value="" style="html=1;shadow=0;dashed=0;shape=mxgraph.bootstrap.radioButton2;labelPosition=right;verticalLabelPosition=middle;align=left;verticalAlign=middle;gradientColor=none;fillColor=#131313;checked=0;spacing=5;checkedFill=#0085FC;checkedStroke=#ffffff;sketch=0;strokeColor=none;" parent="WIyWlLk6GJQsqaUBKTNV-1" vertex="1">
          <mxGeometry x="-2495" y="-1425" width="10" height="10" as="geometry" />
        </mxCell>
        <mxCell id="9sWT844mPqqzPBZcq-Wg-41" value="" style="html=1;shadow=0;dashed=0;shape=mxgraph.bootstrap.radioButton2;labelPosition=right;verticalLabelPosition=middle;align=left;verticalAlign=middle;gradientColor=none;fillColor=#FFFFFF;checked=0;spacing=5;checkedFill=#0085FC;checkedStroke=#ffffff;sketch=0;strokeColor=default;" parent="WIyWlLk6GJQsqaUBKTNV-1" vertex="1">
          <mxGeometry x="-2415" y="-1425" width="10" height="10" as="geometry" />
        </mxCell>
        <mxCell id="9sWT844mPqqzPBZcq-Wg-42" value="In-House" style="text;html=1;align=center;verticalAlign=middle;resizable=0;points=[];autosize=1;strokeColor=none;fillColor=none;" parent="WIyWlLk6GJQsqaUBKTNV-1" vertex="1">
          <mxGeometry x="-2495" y="-1435" width="70" height="30" as="geometry" />
        </mxCell>
        <mxCell id="9sWT844mPqqzPBZcq-Wg-43" value="Outsourced" style="text;html=1;align=center;verticalAlign=middle;resizable=0;points=[];autosize=1;strokeColor=none;fillColor=none;" parent="WIyWlLk6GJQsqaUBKTNV-1" vertex="1">
          <mxGeometry x="-2415" y="-1435" width="90" height="30" as="geometry" />
        </mxCell>
        <mxCell id="9sWT844mPqqzPBZcq-Wg-44" value="ID" style="text;html=1;align=center;verticalAlign=middle;resizable=0;points=[];autosize=1;strokeColor=none;fillColor=none;" parent="WIyWlLk6GJQsqaUBKTNV-1" vertex="1">
          <mxGeometry x="-2575" y="-1412" width="40" height="30" as="geometry" />
        </mxCell>
        <mxCell id="9sWT844mPqqzPBZcq-Wg-45" value="Name" style="text;html=1;align=center;verticalAlign=middle;resizable=0;points=[];autosize=1;strokeColor=none;fillColor=none;" parent="WIyWlLk6GJQsqaUBKTNV-1" vertex="1">
          <mxGeometry x="-2590" y="-1385" width="60" height="30" as="geometry" />
        </mxCell>
        <mxCell id="9sWT844mPqqzPBZcq-Wg-46" value="Inventory" style="text;html=1;align=center;verticalAlign=middle;resizable=0;points=[];autosize=1;strokeColor=none;fillColor=none;" parent="WIyWlLk6GJQsqaUBKTNV-1" vertex="1">
          <mxGeometry x="-2600" y="-1360" width="70" height="30" as="geometry" />
        </mxCell>
        <mxCell id="9sWT844mPqqzPBZcq-Wg-47" value="Price" style="text;html=1;align=center;verticalAlign=middle;resizable=0;points=[];autosize=1;strokeColor=none;fillColor=none;" parent="WIyWlLk6GJQsqaUBKTNV-1" vertex="1">
          <mxGeometry x="-2585" y="-1330" width="50" height="30" as="geometry" />
        </mxCell>
        <mxCell id="9sWT844mPqqzPBZcq-Wg-48" value="Max" style="text;html=1;align=center;verticalAlign=middle;resizable=0;points=[];autosize=1;strokeColor=none;fillColor=none;" parent="WIyWlLk6GJQsqaUBKTNV-1" vertex="1">
          <mxGeometry x="-2585" y="-1300" width="50" height="30" as="geometry" />
        </mxCell>
        <mxCell id="9sWT844mPqqzPBZcq-Wg-49" value="Min" style="text;html=1;align=center;verticalAlign=middle;resizable=0;points=[];autosize=1;strokeColor=none;fillColor=none;" parent="WIyWlLk6GJQsqaUBKTNV-1" vertex="1">
          <mxGeometry x="-2435" y="-1300" width="40" height="30" as="geometry" />
        </mxCell>
        <mxCell id="9sWT844mPqqzPBZcq-Wg-50" value="Machine ID" style="text;html=1;align=center;verticalAlign=middle;resizable=0;points=[];autosize=1;strokeColor=none;fillColor=none;" parent="WIyWlLk6GJQsqaUBKTNV-1" vertex="1">
          <mxGeometry x="-2610" y="-1270" width="80" height="30" as="geometry" />
        </mxCell>
        <mxCell id="9sWT844mPqqzPBZcq-Wg-51" value="Save" style="rounded=1;whiteSpace=wrap;html=1;" parent="WIyWlLk6GJQsqaUBKTNV-1" vertex="1">
          <mxGeometry x="-2415" y="-1235" width="50" height="20" as="geometry" />
        </mxCell>
        <mxCell id="9sWT844mPqqzPBZcq-Wg-53" value="Cancel" style="rounded=1;whiteSpace=wrap;html=1;" parent="WIyWlLk6GJQsqaUBKTNV-1" vertex="1">
          <mxGeometry x="-2335" y="-1235" width="50" height="20" as="geometry" />
        </mxCell>
        <mxCell id="9sWT844mPqqzPBZcq-Wg-54" value="" style="rounded=1;whiteSpace=wrap;html=1;" parent="WIyWlLk6GJQsqaUBKTNV-1" vertex="1">
          <mxGeometry x="-2535" y="-1407" width="90" height="20" as="geometry" />
        </mxCell>
        <mxCell id="9sWT844mPqqzPBZcq-Wg-55" value="" style="rounded=1;whiteSpace=wrap;html=1;" parent="WIyWlLk6GJQsqaUBKTNV-1" vertex="1">
          <mxGeometry x="-2535" y="-1380" width="90" height="20" as="geometry" />
        </mxCell>
        <mxCell id="9sWT844mPqqzPBZcq-Wg-56" value="" style="rounded=1;whiteSpace=wrap;html=1;" parent="WIyWlLk6GJQsqaUBKTNV-1" vertex="1">
          <mxGeometry x="-2535" y="-1355" width="90" height="20" as="geometry" />
        </mxCell>
        <mxCell id="9sWT844mPqqzPBZcq-Wg-57" value="" style="rounded=1;whiteSpace=wrap;html=1;" parent="WIyWlLk6GJQsqaUBKTNV-1" vertex="1">
          <mxGeometry x="-2535" y="-1325" width="90" height="20" as="geometry" />
        </mxCell>
        <mxCell id="9sWT844mPqqzPBZcq-Wg-58" value="" style="rounded=1;whiteSpace=wrap;html=1;" parent="WIyWlLk6GJQsqaUBKTNV-1" vertex="1">
          <mxGeometry x="-2535" y="-1295" width="90" height="20" as="geometry" />
        </mxCell>
        <mxCell id="9sWT844mPqqzPBZcq-Wg-59" value="" style="rounded=1;whiteSpace=wrap;html=1;" parent="WIyWlLk6GJQsqaUBKTNV-1" vertex="1">
          <mxGeometry x="-2535" y="-1265" width="90" height="20" as="geometry" />
        </mxCell>
        <mxCell id="9sWT844mPqqzPBZcq-Wg-60" value="" style="rounded=1;whiteSpace=wrap;html=1;" parent="WIyWlLk6GJQsqaUBKTNV-1" vertex="1">
          <mxGeometry x="-2395" y="-1295" width="90" height="20" as="geometry" />
        </mxCell>
        <mxCell id="9sWT844mPqqzPBZcq-Wg-62" value="" style="rounded=0;whiteSpace=wrap;html=1;" parent="WIyWlLk6GJQsqaUBKTNV-1" vertex="1">
          <mxGeometry x="-2150" y="-1460" width="530" height="360" as="geometry" />
        </mxCell>
        <mxCell id="9sWT844mPqqzPBZcq-Wg-63" value="Add Product" style="text;html=1;align=center;verticalAlign=middle;resizable=0;points=[];autosize=1;strokeColor=none;fillColor=none;" parent="WIyWlLk6GJQsqaUBKTNV-1" vertex="1">
          <mxGeometry x="-2140" y="-1445" width="90" height="30" as="geometry" />
        </mxCell>
        <mxCell id="9sWT844mPqqzPBZcq-Wg-64" value="" style="html=1;shadow=0;dashed=0;shape=mxgraph.bootstrap.radioButton2;labelPosition=right;verticalLabelPosition=middle;align=left;verticalAlign=middle;gradientColor=none;fillColor=#131313;checked=0;spacing=5;checkedFill=#0085FC;checkedStroke=#ffffff;sketch=0;strokeColor=none;" parent="WIyWlLk6GJQsqaUBKTNV-1" vertex="1">
          <mxGeometry x="-2030" y="-1435" width="10" height="10" as="geometry" />
        </mxCell>
        <mxCell id="9sWT844mPqqzPBZcq-Wg-65" value="" style="html=1;shadow=0;dashed=0;shape=mxgraph.bootstrap.radioButton2;labelPosition=right;verticalLabelPosition=middle;align=left;verticalAlign=middle;gradientColor=none;fillColor=#FFFFFF;checked=0;spacing=5;checkedFill=#0085FC;checkedStroke=#ffffff;sketch=0;strokeColor=default;" parent="WIyWlLk6GJQsqaUBKTNV-1" vertex="1">
          <mxGeometry x="-1950" y="-1435" width="10" height="10" as="geometry" />
        </mxCell>
        <mxCell id="9sWT844mPqqzPBZcq-Wg-66" value="In-House" style="text;html=1;align=center;verticalAlign=middle;resizable=0;points=[];autosize=1;strokeColor=none;fillColor=none;" parent="WIyWlLk6GJQsqaUBKTNV-1" vertex="1">
          <mxGeometry x="-2030" y="-1445" width="70" height="30" as="geometry" />
        </mxCell>
        <mxCell id="9sWT844mPqqzPBZcq-Wg-67" value="Outsourced" style="text;html=1;align=center;verticalAlign=middle;resizable=0;points=[];autosize=1;strokeColor=none;fillColor=none;" parent="WIyWlLk6GJQsqaUBKTNV-1" vertex="1">
          <mxGeometry x="-1950" y="-1445" width="90" height="30" as="geometry" />
        </mxCell>
        <mxCell id="9sWT844mPqqzPBZcq-Wg-68" value="ID" style="text;html=1;align=center;verticalAlign=middle;resizable=0;points=[];autosize=1;strokeColor=none;fillColor=none;" parent="WIyWlLk6GJQsqaUBKTNV-1" vertex="1">
          <mxGeometry x="-2110" y="-1422" width="40" height="30" as="geometry" />
        </mxCell>
        <mxCell id="9sWT844mPqqzPBZcq-Wg-69" value="Name" style="text;html=1;align=center;verticalAlign=middle;resizable=0;points=[];autosize=1;strokeColor=none;fillColor=none;" parent="WIyWlLk6GJQsqaUBKTNV-1" vertex="1">
          <mxGeometry x="-2125" y="-1395" width="60" height="30" as="geometry" />
        </mxCell>
        <mxCell id="9sWT844mPqqzPBZcq-Wg-70" value="Inventory" style="text;html=1;align=center;verticalAlign=middle;resizable=0;points=[];autosize=1;strokeColor=none;fillColor=none;" parent="WIyWlLk6GJQsqaUBKTNV-1" vertex="1">
          <mxGeometry x="-2135" y="-1370" width="70" height="30" as="geometry" />
        </mxCell>
        <mxCell id="9sWT844mPqqzPBZcq-Wg-71" value="Price" style="text;html=1;align=center;verticalAlign=middle;resizable=0;points=[];autosize=1;strokeColor=none;fillColor=none;" parent="WIyWlLk6GJQsqaUBKTNV-1" vertex="1">
          <mxGeometry x="-2120" y="-1340" width="50" height="30" as="geometry" />
        </mxCell>
        <mxCell id="9sWT844mPqqzPBZcq-Wg-72" value="Max" style="text;html=1;align=center;verticalAlign=middle;resizable=0;points=[];autosize=1;strokeColor=none;fillColor=none;" parent="WIyWlLk6GJQsqaUBKTNV-1" vertex="1">
          <mxGeometry x="-2120" y="-1310" width="50" height="30" as="geometry" />
        </mxCell>
        <mxCell id="9sWT844mPqqzPBZcq-Wg-73" value="Min" style="text;html=1;align=center;verticalAlign=middle;resizable=0;points=[];autosize=1;strokeColor=none;fillColor=none;" parent="WIyWlLk6GJQsqaUBKTNV-1" vertex="1">
          <mxGeometry x="-1970" y="-1310" width="40" height="30" as="geometry" />
        </mxCell>
        <mxCell id="9sWT844mPqqzPBZcq-Wg-75" value="Save" style="rounded=1;whiteSpace=wrap;html=1;" parent="WIyWlLk6GJQsqaUBKTNV-1" vertex="1">
          <mxGeometry x="-1795" y="-1140" width="50" height="20" as="geometry" />
        </mxCell>
        <mxCell id="9sWT844mPqqzPBZcq-Wg-76" value="Cancel" style="rounded=1;whiteSpace=wrap;html=1;" parent="WIyWlLk6GJQsqaUBKTNV-1" vertex="1">
          <mxGeometry x="-1715" y="-1140" width="50" height="20" as="geometry" />
        </mxCell>
        <mxCell id="9sWT844mPqqzPBZcq-Wg-77" value="" style="rounded=1;whiteSpace=wrap;html=1;" parent="WIyWlLk6GJQsqaUBKTNV-1" vertex="1">
          <mxGeometry x="-2070" y="-1417" width="90" height="20" as="geometry" />
        </mxCell>
        <mxCell id="9sWT844mPqqzPBZcq-Wg-78" value="" style="rounded=1;whiteSpace=wrap;html=1;" parent="WIyWlLk6GJQsqaUBKTNV-1" vertex="1">
          <mxGeometry x="-2070" y="-1390" width="90" height="20" as="geometry" />
        </mxCell>
        <mxCell id="9sWT844mPqqzPBZcq-Wg-79" value="" style="rounded=1;whiteSpace=wrap;html=1;" parent="WIyWlLk6GJQsqaUBKTNV-1" vertex="1">
          <mxGeometry x="-2070" y="-1365" width="90" height="20" as="geometry" />
        </mxCell>
        <mxCell id="9sWT844mPqqzPBZcq-Wg-80" value="" style="rounded=1;whiteSpace=wrap;html=1;" parent="WIyWlLk6GJQsqaUBKTNV-1" vertex="1">
          <mxGeometry x="-2070" y="-1335" width="90" height="20" as="geometry" />
        </mxCell>
        <mxCell id="9sWT844mPqqzPBZcq-Wg-81" value="" style="rounded=1;whiteSpace=wrap;html=1;" parent="WIyWlLk6GJQsqaUBKTNV-1" vertex="1">
          <mxGeometry x="-2070" y="-1305" width="90" height="20" as="geometry" />
        </mxCell>
        <mxCell id="9sWT844mPqqzPBZcq-Wg-83" value="" style="rounded=1;whiteSpace=wrap;html=1;" parent="WIyWlLk6GJQsqaUBKTNV-1" vertex="1">
          <mxGeometry x="-1930" y="-1305" width="90" height="20" as="geometry" />
        </mxCell>
        <mxCell id="9sWT844mPqqzPBZcq-Wg-84" value="Parts" style="swimlane;fontStyle=0;childLayout=stackLayout;horizontal=1;startSize=30;horizontalStack=0;resizeParent=1;resizeParentMax=0;resizeLast=0;collapsible=1;marginBottom=0;whiteSpace=wrap;html=1;" parent="WIyWlLk6GJQsqaUBKTNV-1" vertex="1">
          <mxGeometry x="-1775" y="-1410" width="140" height="120" as="geometry" />
        </mxCell>
        <mxCell id="9sWT844mPqqzPBZcq-Wg-85" value="Item 1" style="text;strokeColor=none;fillColor=none;align=left;verticalAlign=middle;spacingLeft=4;spacingRight=4;overflow=hidden;points=[[0,0.5],[1,0.5]];portConstraint=eastwest;rotatable=0;whiteSpace=wrap;html=1;" parent="9sWT844mPqqzPBZcq-Wg-84" vertex="1">
          <mxGeometry y="30" width="140" height="30" as="geometry" />
        </mxCell>
        <mxCell id="9sWT844mPqqzPBZcq-Wg-86" value="Item 2" style="text;strokeColor=none;fillColor=none;align=left;verticalAlign=middle;spacingLeft=4;spacingRight=4;overflow=hidden;points=[[0,0.5],[1,0.5]];portConstraint=eastwest;rotatable=0;whiteSpace=wrap;html=1;" parent="9sWT844mPqqzPBZcq-Wg-84" vertex="1">
          <mxGeometry y="60" width="140" height="30" as="geometry" />
        </mxCell>
        <mxCell id="9sWT844mPqqzPBZcq-Wg-87" value="Item 3" style="text;strokeColor=none;fillColor=none;align=left;verticalAlign=middle;spacingLeft=4;spacingRight=4;overflow=hidden;points=[[0,0.5],[1,0.5]];portConstraint=eastwest;rotatable=0;whiteSpace=wrap;html=1;" parent="9sWT844mPqqzPBZcq-Wg-84" vertex="1">
          <mxGeometry y="90" width="140" height="30" as="geometry" />
        </mxCell>
        <mxCell id="9sWT844mPqqzPBZcq-Wg-88" value="Add" style="rounded=1;whiteSpace=wrap;html=1;" parent="WIyWlLk6GJQsqaUBKTNV-1" vertex="1">
          <mxGeometry x="-1685" y="-1280" width="50" height="20" as="geometry" />
        </mxCell>
        <mxCell id="9sWT844mPqqzPBZcq-Wg-89" value="Search" style="rounded=1;whiteSpace=wrap;html=1;" parent="WIyWlLk6GJQsqaUBKTNV-1" vertex="1">
          <mxGeometry x="-1685" y="-1435" width="50" height="20" as="geometry" />
        </mxCell>
        <mxCell id="9sWT844mPqqzPBZcq-Wg-91" value="Associated Parts" style="swimlane;fontStyle=0;childLayout=stackLayout;horizontal=1;startSize=30;horizontalStack=0;resizeParent=1;resizeParentMax=0;resizeLast=0;collapsible=1;marginBottom=0;whiteSpace=wrap;html=1;" parent="WIyWlLk6GJQsqaUBKTNV-1" vertex="1">
          <mxGeometry x="-1775" y="-1250" width="140" height="60" as="geometry" />
        </mxCell>
        <mxCell id="9sWT844mPqqzPBZcq-Wg-95" value="Remove Associated Part" style="rounded=1;whiteSpace=wrap;html=1;" parent="WIyWlLk6GJQsqaUBKTNV-1" vertex="1">
          <mxGeometry x="-1780" y="-1180" width="150" height="20" as="geometry" />
        </mxCell>
        <mxCell id="9sWT844mPqqzPBZcq-Wg-97" value="" style="rounded=0;whiteSpace=wrap;html=1;" parent="WIyWlLk6GJQsqaUBKTNV-1" vertex="1">
          <mxGeometry x="-1820" y="-1800" width="400" height="240" as="geometry" />
        </mxCell>
        <mxCell id="9sWT844mPqqzPBZcq-Wg-98" value="Reports" style="text;html=1;align=center;verticalAlign=middle;resizable=0;points=[];autosize=1;strokeColor=none;fillColor=none;" parent="WIyWlLk6GJQsqaUBKTNV-1" vertex="1">
          <mxGeometry x="-1810" y="-1790" width="70" height="30" as="geometry" />
        </mxCell>
        <mxCell id="9sWT844mPqqzPBZcq-Wg-99" value="All Parts with Stock, Min, and Max" style="text;html=1;align=center;verticalAlign=middle;resizable=0;points=[];autosize=1;strokeColor=none;fillColor=none;" parent="WIyWlLk6GJQsqaUBKTNV-1" vertex="1">
          <mxGeometry x="-1800" y="-1760" width="200" height="30" as="geometry" />
        </mxCell>
        <mxCell id="9sWT844mPqqzPBZcq-Wg-100" value="All Products with Stock, Min, and Max" style="text;html=1;align=center;verticalAlign=middle;resizable=0;points=[];autosize=1;strokeColor=none;fillColor=none;" parent="WIyWlLk6GJQsqaUBKTNV-1" vertex="1">
          <mxGeometry x="-1800" y="-1710" width="220" height="30" as="geometry" />
        </mxCell>
        <mxCell id="9sWT844mPqqzPBZcq-Wg-101" value="All Parts and Products updated within the past week" style="text;html=1;align=center;verticalAlign=middle;resizable=0;points=[];autosize=1;strokeColor=none;fillColor=none;" parent="WIyWlLk6GJQsqaUBKTNV-1" vertex="1">
          <mxGeometry x="-1810" y="-1650" width="300" height="30" as="geometry" />
        </mxCell>
        <mxCell id="9sWT844mPqqzPBZcq-Wg-102" value="Go" style="rounded=1;whiteSpace=wrap;html=1;" parent="WIyWlLk6GJQsqaUBKTNV-1" vertex="1">
          <mxGeometry x="-1570" y="-1755" width="50" height="20" as="geometry" />
        </mxCell>
        <mxCell id="9sWT844mPqqzPBZcq-Wg-103" value="Go" style="rounded=1;whiteSpace=wrap;html=1;" parent="WIyWlLk6GJQsqaUBKTNV-1" vertex="1">
          <mxGeometry x="-1570" y="-1705" width="50" height="20" as="geometry" />
        </mxCell>
        <mxCell id="9sWT844mPqqzPBZcq-Wg-104" value="Go" style="rounded=1;whiteSpace=wrap;html=1;" parent="WIyWlLk6GJQsqaUBKTNV-1" vertex="1">
          <mxGeometry x="-1500" y="-1645" width="50" height="20" as="geometry" />
        </mxCell>
        <mxCell id="9sWT844mPqqzPBZcq-Wg-105" value="" style="rounded=0;whiteSpace=wrap;html=1;" parent="WIyWlLk6GJQsqaUBKTNV-1" vertex="1">
          <mxGeometry x="-1300" y="-1805" width="420" height="400" as="geometry" />
        </mxCell>
        <mxCell id="9sWT844mPqqzPBZcq-Wg-106" value="Parts with Stock Report" style="text;html=1;align=center;verticalAlign=middle;resizable=0;points=[];autosize=1;strokeColor=none;fillColor=none;" parent="WIyWlLk6GJQsqaUBKTNV-1" vertex="1">
          <mxGeometry x="-1165" y="-1795" width="150" height="30" as="geometry" />
        </mxCell>
        <mxCell id="9sWT844mPqqzPBZcq-Wg-107" value="Parts" style="swimlane;fontStyle=0;childLayout=stackLayout;horizontal=1;startSize=30;horizontalStack=0;resizeParent=1;resizeParentMax=0;resizeLast=0;collapsible=1;marginBottom=0;whiteSpace=wrap;html=1;" parent="WIyWlLk6GJQsqaUBKTNV-1" vertex="1">
          <mxGeometry x="-1255" y="-1750" width="330" height="290" as="geometry" />
        </mxCell>
        <mxCell id="9sWT844mPqqzPBZcq-Wg-108" value="Item 1" style="text;strokeColor=none;fillColor=none;align=left;verticalAlign=middle;spacingLeft=4;spacingRight=4;overflow=hidden;points=[[0,0.5],[1,0.5]];portConstraint=eastwest;rotatable=0;whiteSpace=wrap;html=1;" parent="9sWT844mPqqzPBZcq-Wg-107" vertex="1">
          <mxGeometry y="30" width="330" height="30" as="geometry" />
        </mxCell>
        <mxCell id="9sWT844mPqqzPBZcq-Wg-109" value="Item 2" style="text;strokeColor=none;fillColor=none;align=left;verticalAlign=middle;spacingLeft=4;spacingRight=4;overflow=hidden;points=[[0,0.5],[1,0.5]];portConstraint=eastwest;rotatable=0;whiteSpace=wrap;html=1;" parent="9sWT844mPqqzPBZcq-Wg-107" vertex="1">
          <mxGeometry y="60" width="330" height="30" as="geometry" />
        </mxCell>
        <mxCell id="9sWT844mPqqzPBZcq-Wg-110" value="&lt;div&gt;&lt;br&gt;&lt;/div&gt;" style="text;strokeColor=none;fillColor=none;align=left;verticalAlign=middle;spacingLeft=4;spacingRight=4;overflow=hidden;points=[[0,0.5],[1,0.5]];portConstraint=eastwest;rotatable=0;whiteSpace=wrap;html=1;" parent="9sWT844mPqqzPBZcq-Wg-107" vertex="1">
          <mxGeometry y="90" width="330" height="200" as="geometry" />
        </mxCell>
        <mxCell id="HrNhO31FN3igFEdPXb_E-0" value="Report Generated on: Date" style="text;html=1;align=center;verticalAlign=middle;resizable=0;points=[];autosize=1;strokeColor=none;fillColor=none;" vertex="1" parent="WIyWlLk6GJQsqaUBKTNV-1">
          <mxGeometry x="-1055" y="-1448" width="170" height="30" as="geometry" />
        </mxCell>
        <mxCell id="HrNhO31FN3igFEdPXb_E-1" value="Back" style="rounded=1;whiteSpace=wrap;html=1;" vertex="1" parent="WIyWlLk6GJQsqaUBKTNV-1">
          <mxGeometry x="-1110" y="-1443" width="50" height="20" as="geometry" />
        </mxCell>
        <mxCell id="HrNhO31FN3igFEdPXb_E-2" value="Back" style="rounded=1;whiteSpace=wrap;html=1;" vertex="1" parent="WIyWlLk6GJQsqaUBKTNV-1">
          <mxGeometry x="-1650" y="-1602" width="50" height="20" as="geometry" />
        </mxCell>
        <mxCell id="HrNhO31FN3igFEdPXb_E-3" style="edgeStyle=orthogonalEdgeStyle;rounded=0;orthogonalLoop=1;jettySize=auto;html=1;entryX=-0.01;entryY=0.071;entryDx=0;entryDy=0;entryPerimeter=0;elbow=vertical;" edge="1" parent="WIyWlLk6GJQsqaUBKTNV-1" source="9sWT844mPqqzPBZcq-Wg-33" target="9sWT844mPqqzPBZcq-Wg-97">
          <mxGeometry relative="1" as="geometry">
            <Array as="points">
              <mxPoint x="-2020" y="-1750" />
              <mxPoint x="-2020" y="-1783" />
            </Array>
          </mxGeometry>
        </mxCell>
        <mxCell id="HrNhO31FN3igFEdPXb_E-4" style="edgeStyle=orthogonalEdgeStyle;rounded=0;orthogonalLoop=1;jettySize=auto;html=1;entryX=-0.005;entryY=0.15;entryDx=0;entryDy=0;entryPerimeter=0;" edge="1" parent="WIyWlLk6GJQsqaUBKTNV-1" source="9sWT844mPqqzPBZcq-Wg-102" target="9sWT844mPqqzPBZcq-Wg-105">
          <mxGeometry relative="1" as="geometry" />
        </mxCell>
        <mxCell id="HrNhO31FN3igFEdPXb_E-5" style="edgeStyle=orthogonalEdgeStyle;rounded=0;orthogonalLoop=1;jettySize=auto;html=1;entryX=-0.004;entryY=0.712;entryDx=0;entryDy=0;entryPerimeter=0;" edge="1" parent="WIyWlLk6GJQsqaUBKTNV-1" source="9sWT844mPqqzPBZcq-Wg-14" target="9sWT844mPqqzPBZcq-Wg-15">
          <mxGeometry relative="1" as="geometry" />
        </mxCell>
        <mxCell id="HrNhO31FN3igFEdPXb_E-9" style="edgeStyle=orthogonalEdgeStyle;rounded=0;orthogonalLoop=1;jettySize=auto;html=1;entryX=0.671;entryY=-0.008;entryDx=0;entryDy=0;entryPerimeter=0;" edge="1" parent="WIyWlLk6GJQsqaUBKTNV-1" source="9sWT844mPqqzPBZcq-Wg-24" target="9sWT844mPqqzPBZcq-Wg-35">
          <mxGeometry relative="1" as="geometry" />
        </mxCell>
      </root>
    </mxGraphModel>
  </diagram>
</mxfile>
